<svg data-v-423bf9ae="" xmlns="http://www.w3.org/2000/svg" viewBox="0 0 810 262" class="iconLeft"><!----><!----><!----><g data-v-423bf9ae="" id="9292d4e8-4a19-4f68-9821-3ce7f9d122c0" fill="white" transform="matrix(4.184100373888211,0,0,4.184100373888211,222.17324695619573,87.45043210562879)"><path d="M1.05 11.09L1.72 12.93Q2.80 13.19 3.51 13.19L3.51 13.19Q3.88 13.19 4.24 13.11Q4.60 13.04 4.88 12.84Q5.17 12.65 5.34 12.34Q5.52 12.02 5.52 11.54L5.52 11.54Q5.52 11.22 5.43 10.95Q5.34 10.67 5.10 10.40Q4.87 10.12 4.46 9.84Q4.06 9.56 3.43 9.21L3.43 9.21Q2.75 8.85 2.25 8.51Q1.76 8.18 1.43 7.83Q1.11 7.47 0.95 7.06Q0.80 6.65 0.80 6.13L0.80 6.13Q0.80 3.55 4.02 3.55L4.02 3.55Q5.16 3.55 6.43 3.87L6.43 3.87L6.43 6.23L6.15 6.23L5.41 4.50Q4.68 4.35 4.10 4.35L4.10 4.35Q3.12 4.35 2.58 4.72Q2.03 5.09 2.03 5.87L2.03 5.87Q2.03 6.15 2.11 6.39Q2.18 6.64 2.41 6.90Q2.65 7.17 3.07 7.47Q3.49 7.77 4.18 8.16L4.18 8.16Q4.87 8.52 5.38 8.84Q5.89 9.15 6.22 9.48Q6.56 9.82 6.72 10.21Q6.89 10.60 6.89 11.11L6.89 11.11Q6.89 11.93 6.62 12.48Q6.34 13.03 5.88 13.37Q5.42 13.71 4.81 13.85Q4.19 13.99 3.51 13.99L3.51 13.99Q3.12 13.99 2.78 13.97Q2.44 13.95 2.11 13.89Q1.78 13.84 1.44 13.76Q1.10 13.67 0.70 13.56L0.70 13.56L0.70 11.09L1.05 11.09ZM9.13 7.92L7.87 7.42L7.87 7.14L10.25 6.65L10.38 6.79L10.38 11.35Q10.38 12.33 10.73 12.71Q11.07 13.10 11.87 13.10L11.87 13.10Q12.81 13.10 13.52 12.50L13.52 12.50L13.52 7.92L12.26 7.42L12.26 7.14L14.64 6.65L14.78 6.79L14.78 12.87L16.04 13.22L16.04 13.47L13.67 13.99L13.52 13.85L13.52 13.04Q13.05 13.49 12.43 13.74Q11.81 13.99 11.18 13.99L11.18 13.99Q10.77 13.99 10.41 13.86Q10.05 13.73 9.76 13.47Q9.47 13.21 9.30 12.77Q9.13 12.33 9.13 11.76L9.13 11.76L9.13 7.92ZM19.08 14.09L19.08 14.09Q18.41 14.50 18.41 15.39L18.41 15.39Q18.41 15.79 18.61 16.06Q18.81 16.33 19.11 16.49Q19.42 16.65 19.80 16.72Q20.17 16.79 20.52 16.79L20.52 16.79Q20.88 16.79 21.25 16.72Q21.62 16.65 21.91 16.51Q22.20 16.37 22.38 16.16Q22.57 15.95 22.57 15.67L22.57 15.67Q22.57 15.24 22.35 14.98Q22.13 14.72 21.77 14.56Q21.40 14.41 20.90 14.33Q20.40 14.26 19.83 14.20L19.83 14.20Q19.59 14.17 19.40 14.14Q19.22 14.12 19.08 14.09ZM20.45 11.92L20.45 11.92Q19.75 11.92 19.16 11.70L19.16 11.70Q18.73 11.98 18.73 12.42L18.73 12.42Q18.73 12.67 19.02 12.82Q19.31 12.97 19.78 13.04Q20.24 13.10 20.80 13.16Q21.36 13.21 21.92 13.33Q22.48 13.45 22.95 13.65Q23.41 13.85 23.70 14.26Q23.99 14.66 23.99 15.25L23.99 15.25Q23.99 15.72 23.77 16.11Q23.54 16.50 23.18 16.75Q22.81 17.00 22.32 17.17Q21.83 17.34 21.32 17.42Q20.81 17.49 20.28 17.49L20.28 17.49Q18.81 17.49 17.99 16.98Q17.16 16.47 17.16 15.65L17.16 15.65Q17.16 14.47 18.46 13.93L18.46 13.93Q17.65 13.66 17.65 12.91L17.65 12.91Q17.65 12.04 18.72 11.46L18.72 11.46Q18.12 11.09 17.80 10.51Q17.49 9.93 17.49 9.28L17.49 9.28Q17.49 8.78 17.68 8.32Q17.88 7.85 18.25 7.48Q18.61 7.10 19.19 6.88Q19.76 6.65 20.45 6.65L20.45 6.65Q21.05 6.65 21.55 6.82L21.55 6.82L24.30 6.82L24.30 7.10L22.80 7.64Q23.42 8.35 23.42 9.28L23.42 9.28Q23.42 9.78 23.22 10.25Q23.02 10.72 22.65 11.09Q22.29 11.46 21.71 11.69Q21.14 11.92 20.45 11.92ZM18.91 9.28L18.91 9.28Q18.91 10.22 19.32 10.72Q19.73 11.22 20.45 11.22L20.45 11.22Q21.17 11.22 21.58 10.72Q21.99 10.21 21.99 9.28L21.99 9.28Q21.99 8.35 21.58 7.85Q21.17 7.36 20.45 7.36L20.45 7.36Q19.73 7.36 19.32 7.85Q18.91 8.35 18.91 9.28ZM30.46 12.87L31.73 13.22L31.73 13.47L30.24 13.93Q29.80 14.03 29.50 13.83Q29.20 13.64 29.20 13.17L29.20 13.17Q28.31 13.99 27.12 13.99L27.12 13.99Q26.13 13.99 25.63 13.48Q25.14 12.97 25.14 12.20L25.14 12.20Q25.14 11.61 25.40 11.17Q25.66 10.72 26.07 10.45Q26.47 10.19 27.03 10.01Q27.59 9.83 28.11 9.76Q28.63 9.69 29.20 9.68L29.20 9.68L29.20 9.02Q29.20 8.07 28.90 7.69Q28.60 7.31 27.90 7.31L27.90 7.31Q27.38 7.31 26.67 7.48L26.67 7.48L25.94 9.06L25.61 9.06L25.61 7.12Q26.22 6.90 26.91 6.77Q27.59 6.65 28.11 6.65L28.11 6.65Q29.24 6.65 29.85 7.11Q30.46 7.56 30.46 8.60L30.46 8.60L30.46 12.87ZM27.69 13.19L27.69 13.19Q28.08 13.19 28.49 13.01Q28.90 12.82 29.20 12.49L29.20 12.49L29.20 10.24Q27.84 10.30 27.12 10.80Q26.40 11.29 26.40 12.06L26.40 12.06Q26.40 12.65 26.78 12.92Q27.15 13.19 27.69 13.19ZM34.94 13.05L36.55 13.54L36.55 13.82L32.42 13.82L32.42 13.54L33.68 13.05L33.68 7.92L32.42 7.42L32.42 7.14L34.80 6.65L34.94 6.79L34.94 7.64Q35.98 6.65 37.67 6.65L37.67 6.65L37.67 8.17L37.39 8.26L36.39 7.72Q36.09 7.72 35.69 7.85Q35.29 7.98 34.94 8.24L34.94 8.24L34.94 13.05ZM41.74 13.99L41.74 13.99Q41.10 13.99 40.51 13.73Q39.93 13.47 39.48 13.00Q39.04 12.53 38.77 11.83Q38.51 11.14 38.51 10.32L38.51 10.32Q38.51 9.44 38.77 8.73Q39.04 8.02 39.51 7.57Q39.98 7.12 40.58 6.88Q41.19 6.64 41.90 6.64L41.90 6.64Q42.90 6.64 43.87 7.09L43.87 7.09L43.87 9.20L43.59 9.20L42.83 7.37Q42.42 7.27 42.02 7.27L42.02 7.27Q40.95 7.27 40.43 8.07Q39.92 8.86 39.92 10.32L39.92 10.32Q39.92 11.72 40.60 12.46Q41.28 13.21 42.46 13.21L42.46 13.21Q42.86 13.21 43.19 13.10Q43.51 13.00 43.98 12.73L43.98 12.73L44.19 13.17Q43.59 13.64 43.02 13.82Q42.45 13.99 41.74 13.99ZM47.76 13.05L49.38 13.54L49.38 13.82L45.25 13.82L45.25 13.54L46.50 13.05L46.50 7.92L45.25 7.42L45.25 7.14L47.63 6.65L47.76 6.79L47.76 7.64Q48.80 6.65 50.50 6.65L50.50 6.65L50.50 8.17L50.22 8.26L49.22 7.72Q48.91 7.72 48.51 7.85Q48.12 7.98 47.76 8.24L47.76 8.24L47.76 13.05ZM56.65 12.87L57.91 13.22L57.91 13.47L56.43 13.93Q55.99 14.03 55.69 13.83Q55.39 13.64 55.39 13.17L55.39 13.17Q54.50 13.99 53.31 13.99L53.31 13.99Q52.32 13.99 51.82 13.48Q51.33 12.97 51.33 12.20L51.33 12.20Q51.33 11.61 51.59 11.17Q51.85 10.72 52.25 10.45Q52.66 10.19 53.22 10.01Q53.78 9.83 54.30 9.76Q54.82 9.69 55.39 9.68L55.39 9.68L55.39 9.02Q55.39 8.07 55.09 7.69Q54.79 7.31 54.09 7.31L54.09 7.31Q53.57 7.31 52.86 7.48L52.86 7.48L52.13 9.06L51.80 9.06L51.80 7.12Q52.41 6.90 53.09 6.77Q53.78 6.65 54.30 6.65L54.30 6.65Q55.43 6.65 56.04 7.11Q56.65 7.56 56.65 8.60L56.65 8.60L56.65 12.87ZM53.88 13.19L53.88 13.19Q54.27 13.19 54.68 13.01Q55.09 12.82 55.39 12.49L55.39 12.49L55.39 10.24Q54.02 10.30 53.31 10.80Q52.59 11.29 52.59 12.06L52.59 12.06Q52.59 12.65 52.96 12.92Q53.34 13.19 53.88 13.19ZM63.37 7.36L61.20 7.77L61.20 13.05L62.95 13.54L62.95 13.82L58.68 13.82L58.68 13.54L59.94 13.05L59.94 7.80L58.61 7.42L58.61 7.14L59.94 6.86L59.94 6.17Q59.94 5.43 60.20 4.85Q60.46 4.26 60.89 3.90Q61.33 3.53 61.87 3.34Q62.41 3.15 63.01 3.15L63.01 3.15Q63.22 3.15 63.57 3.21Q63.93 3.26 64.11 3.34L64.11 3.34L64.11 5.42L63.83 5.42L62.86 3.79Q62.27 3.79 61.89 4.09Q61.51 4.39 61.36 4.87Q61.20 5.35 61.20 6.02L61.20 6.02L61.20 6.86L63.13 6.86L63.37 6.95L63.37 7.36ZM68.59 7.36L66.35 7.77L66.35 11.58Q66.35 12.04 66.42 12.36Q66.49 12.67 66.63 12.83Q66.77 12.98 66.93 13.04Q67.09 13.10 67.31 13.10L67.31 13.10Q67.72 13.10 67.99 13.03Q68.27 12.95 68.59 12.76L68.59 12.76L68.80 13.19Q67.84 13.99 66.69 13.99L66.69 13.99Q66.02 13.99 65.56 13.46Q65.09 12.93 65.09 11.98L65.09 11.98L65.09 7.77L63.82 7.42L63.82 7.14L65.15 6.86L65.65 4.98L66.35 4.98L66.35 6.86L68.35 6.86L68.59 6.95L68.59 7.36ZM74.85 4.02L74.85 3.74L79.09 3.74Q80.17 3.74 81.05 4.06Q81.94 4.39 82.60 5.01Q83.25 5.63 83.61 6.60Q83.98 7.57 83.98 8.80L83.98 8.80Q83.98 10.27 83.36 11.42Q82.74 12.56 81.62 13.19Q80.51 13.82 79.08 13.82L79.08 13.82L74.85 13.82L74.85 13.54L76.11 13.05L76.11 4.51L74.85 4.02ZM79.00 4.47L79.00 4.47L77.44 4.47L77.44 13.10L79.04 13.10Q79.73 13.10 80.35 12.83Q80.98 12.56 81.47 12.06Q81.96 11.55 82.25 10.75Q82.54 9.94 82.54 8.93L82.54 8.93Q82.54 6.78 81.61 5.63Q80.69 4.47 79.00 4.47ZM91.34 10.17L91.14 10.36L86.72 10.36Q86.73 11.13 86.94 11.70Q87.15 12.26 87.51 12.58Q87.88 12.91 88.31 13.06Q88.74 13.21 89.26 13.21L89.26 13.21Q89.97 13.21 90.78 12.73L90.78 12.73L90.99 13.14Q90.42 13.64 89.84 13.82Q89.27 13.99 88.54 13.99L88.54 13.99Q87.90 13.99 87.32 13.72Q86.73 13.45 86.28 12.98Q85.84 12.50 85.57 11.81Q85.31 11.12 85.31 10.32L85.31 10.32Q85.31 9.56 85.50 8.94Q85.70 8.31 86.02 7.90Q86.34 7.48 86.77 7.19Q87.19 6.90 87.64 6.78Q88.09 6.65 88.55 6.65L88.55 6.65Q89.13 6.65 89.63 6.87Q90.13 7.08 90.51 7.50Q90.90 7.92 91.12 8.61Q91.34 9.29 91.34 10.17L91.34 10.17ZM88.58 7.31L88.58 7.31Q87.79 7.31 87.33 7.94Q86.86 8.56 86.75 9.64L86.75 9.64L90.01 9.64Q90.01 8.54 89.64 7.93Q89.27 7.31 88.58 7.31ZM94.84 13.05L96.10 13.54L96.10 13.82L92.32 13.82L92.32 13.54L93.58 13.05L93.58 4.42L92.32 3.92L92.32 3.64L94.71 3.15L94.84 3.29L94.84 13.05ZM99.74 13.05L101.00 13.54L101.00 13.82L97.22 13.82L97.22 13.54L98.48 13.05L98.48 7.92L97.22 7.42L97.22 7.14L99.60 6.65L99.74 6.79L99.74 13.05ZM98.02 4.59L98.02 4.59Q98.02 4.24 98.27 3.99Q98.52 3.74 98.89 3.74L98.89 3.74Q99.24 3.74 99.49 3.99Q99.74 4.24 99.74 4.59L99.74 4.59Q99.74 4.96 99.49 5.21Q99.24 5.46 98.89 5.46L98.89 5.46Q98.52 5.46 98.27 5.21Q98.02 4.96 98.02 4.59ZM105.28 13.99L105.28 13.99Q104.64 13.99 104.05 13.73Q103.47 13.47 103.02 13.00Q102.58 12.53 102.31 11.83Q102.05 11.14 102.05 10.32L102.05 10.32Q102.05 9.44 102.31 8.73Q102.58 8.02 103.05 7.57Q103.52 7.12 104.13 6.88Q104.73 6.64 105.44 6.64L105.44 6.64Q106.44 6.64 107.41 7.09L107.41 7.09L107.41 9.20L107.13 9.20L106.37 7.37Q105.96 7.27 105.56 7.27L105.56 7.27Q104.49 7.27 103.97 8.07Q103.46 8.86 103.46 10.32L103.46 10.32Q103.46 11.72 104.14 12.46Q104.82 13.21 106.00 13.21L106.00 13.21Q106.40 13.21 106.73 13.10Q107.05 13.00 107.52 12.73L107.52 12.73L107.73 13.17Q107.13 13.64 106.56 13.82Q105.99 13.99 105.28 13.99ZM114.24 12.87L115.51 13.22L115.51 13.47L114.02 13.93Q113.59 14.03 113.29 13.83Q112.98 13.64 112.98 13.17L112.98 13.17Q112.10 13.99 110.90 13.99L110.90 13.99Q109.91 13.99 109.42 13.48Q108.92 12.97 108.92 12.20L108.92 12.20Q108.92 11.61 109.18 11.17Q109.44 10.72 109.85 10.45Q110.25 10.19 110.81 10.01Q111.37 9.83 111.89 9.76Q112.41 9.69 112.98 9.68L112.98 9.68L112.98 9.02Q112.98 8.07 112.68 7.69Q112.38 7.31 111.69 7.31L111.69 7.31Q111.16 7.31 110.45 7.48L110.45 7.48L109.72 9.06L109.39 9.06L109.39 7.12Q110.00 6.90 110.69 6.77Q111.37 6.65 111.89 6.65L111.89 6.65Q113.02 6.65 113.63 7.11Q114.24 7.56 114.24 8.60L114.24 8.60L114.24 12.87ZM111.47 13.19L111.47 13.19Q111.86 13.19 112.27 13.01Q112.68 12.82 112.98 12.49L112.98 12.49L112.98 10.24Q111.62 10.30 110.90 10.80Q110.18 11.29 110.18 12.06L110.18 12.06Q110.18 12.65 110.56 12.92Q110.93 13.19 111.47 13.19ZM119.57 13.99L119.57 13.99Q118.93 13.99 118.35 13.73Q117.76 13.47 117.32 13.00Q116.87 12.53 116.61 11.83Q116.34 11.14 116.34 10.32L116.34 10.32Q116.34 9.44 116.61 8.73Q116.87 8.02 117.34 7.57Q117.81 7.12 118.42 6.88Q119.03 6.64 119.73 6.64L119.73 6.64Q120.74 6.64 121.71 7.09L121.71 7.09L121.71 9.20L121.43 9.20L120.67 7.37Q120.26 7.27 119.85 7.27L119.85 7.27Q118.78 7.27 118.27 8.07Q117.76 8.86 117.76 10.32L117.76 10.32Q117.76 11.72 118.43 12.46Q119.11 13.21 120.29 13.21L120.29 13.21Q120.70 13.21 121.02 13.10Q121.34 13.00 121.82 12.73L121.82 12.73L122.03 13.17Q121.42 13.64 120.85 13.82Q120.29 13.99 119.57 13.99ZM125.67 13.05L126.93 13.54L126.93 13.82L123.15 13.82L123.15 13.54L124.41 13.05L124.41 7.92L123.15 7.42L123.15 7.14L125.53 6.65L125.67 6.79L125.67 13.05ZM123.95 4.59L123.95 4.59Q123.95 4.24 124.20 3.99Q124.45 3.74 124.82 3.74L124.82 3.74Q125.17 3.74 125.42 3.99Q125.67 4.24 125.67 4.59L125.67 4.59Q125.67 4.96 125.42 5.21Q125.17 5.46 124.82 5.46L124.82 5.46Q124.45 5.46 124.20 5.21Q123.95 4.96 123.95 4.59ZM134.01 10.17L133.81 10.36L129.39 10.36Q129.40 11.13 129.61 11.70Q129.82 12.26 130.18 12.58Q130.55 12.91 130.98 13.06Q131.41 13.21 131.93 13.21L131.93 13.21Q132.64 13.21 133.45 12.73L133.45 12.73L133.66 13.14Q133.09 13.64 132.51 13.82Q131.94 13.99 131.21 13.99L131.21 13.99Q130.57 13.99 129.99 13.72Q129.40 13.45 128.95 12.98Q128.51 12.50 128.24 11.81Q127.98 11.12 127.98 10.32L127.98 10.32Q127.98 9.56 128.17 8.94Q128.37 8.31 128.69 7.90Q129.01 7.48 129.44 7.19Q129.86 6.90 130.31 6.78Q130.76 6.65 131.22 6.65L131.22 6.65Q131.80 6.65 132.30 6.87Q132.79 7.08 133.18 7.50Q133.57 7.92 133.79 8.61Q134.01 9.29 134.01 10.17L134.01 10.17ZM131.25 7.31L131.25 7.31Q130.46 7.31 130.00 7.94Q129.53 8.56 129.42 9.64L129.42 9.64L132.68 9.64Q132.68 8.54 132.31 7.93Q131.94 7.31 131.25 7.31ZM135.41 11.51L135.76 11.51L136.49 13.06Q136.58 13.12 136.71 13.16Q136.84 13.21 136.99 13.24Q137.14 13.28 137.30 13.30Q137.46 13.32 137.61 13.32L137.61 13.32Q137.96 13.32 138.24 13.24Q138.52 13.17 138.73 13.04Q138.93 12.91 139.04 12.71Q139.15 12.52 139.15 12.27L139.15 12.27Q139.15 11.95 138.89 11.66Q138.63 11.37 138.15 11.09L138.15 11.09L137.42 10.68Q137.03 10.48 136.69 10.26Q136.35 10.04 136.10 9.78Q135.84 9.52 135.70 9.21Q135.55 8.89 135.55 8.50L135.55 8.50Q135.55 8.03 135.73 7.68Q135.92 7.33 136.26 7.11Q136.60 6.88 137.08 6.76Q137.57 6.65 138.15 6.65L138.15 6.65Q139.06 6.65 139.96 6.95L139.96 6.95L139.93 8.92L139.65 8.92L138.93 7.31Q138.67 7.28 138.48 7.26Q138.29 7.24 138.17 7.24L138.17 7.24Q137.80 7.24 137.53 7.32Q137.26 7.41 137.08 7.55Q136.91 7.69 136.82 7.87Q136.74 8.05 136.74 8.24L136.74 8.24Q136.74 8.46 136.82 8.64Q136.91 8.83 137.08 8.99Q137.25 9.15 137.50 9.31Q137.75 9.47 138.09 9.65L138.09 9.65Q138.56 9.91 138.88 10.08Q139.19 10.24 139.32 10.34L139.32 10.34Q140.40 11.05 140.40 11.99L140.40 11.99Q140.40 12.50 140.15 12.88Q139.91 13.25 139.52 13.51Q139.13 13.77 138.63 13.89Q138.14 14.02 137.64 14.02L137.64 14.02Q137.38 14.02 137.08 13.99Q136.78 13.95 136.48 13.89Q136.18 13.83 135.90 13.74Q135.63 13.66 135.41 13.56L135.41 13.56L135.41 11.51Z"></path></g><!----><g data-v-423bf9ae="" id="896cbc5f-d62f-4395-ae97-4ec1f3e8a170" transform="matrix(1.7037889268663196,0,0,1.7037889268663196,-91.65911823971871,-70.94949501258995)" stroke="none" fill="white"><path d="M87.445 41.659H54.147v4.486h26.708l.001 2.184H54.147v3.455h26.708v2.184H54.147v3.519h26.708v2.184H54.147v4.487h33.298c5.855 0 11.084-1.611 14.523-4.135 8.332-2.559 18.881-4.093 30.371-4.094 12.062 0 23.091 1.688 31.603 4.479h2.563v-.027c.173.013.346.026.521.026 4.143 0 7.5-3.357 7.5-7.5a7.5 7.5 0 00-7.5-7.5c-.175 0-.348.015-.521.027v-.027h-1.104c-8.593 2.916-19.869 4.688-32.229 4.688-11.94 0-22.864-1.657-31.341-4.4-3.437-2.466-8.606-4.036-14.386-4.036zM169.459 156.569H70.541c-2.799 0-5.067 1.936-5.067 4.323v24.372c0 2.388 2.269 4.323 5.067 4.323H174.526v-33.018h-5.067zM169.459 110.963H70.541c-2.799 0-5.067 2.239-5.067 5v28.188c0 2.761 2.269 5 5.067 5H174.526v-38.188h-5.067z"></path><path d="M63.333 161.365V159.5a5 5 0 015-5h106.193v-4.393H68.263a5 5 0 01-5-5v-30.294a5 5 0 015-5h106.264v-4.598H54.147V195h120.379v-4.447H68.333a5 5 0 01-5-5v-24.188zM86.736 80.987c-7.051 0-12.767 8.228-12.767 18.376h25.534c.001-10.148-5.715-18.376-12.767-18.376z"></path><path d="M74.989 98.363h23.495a24.384 24.384 0 00-.121-1.684l-23-1.757a24.97 24.97 0 00-.374 3.441z"></path><path d="M100.373 96.833c.077.83.131 1.67.131 2.53v1H72.97v-1c0-1.585.151-3.118.407-4.593l-7.903-.604-11.327 8.334h120.379l-74.153-5.667z"></path></g><!----></svg>